<svg xmlns="http://www.w3.org/2000/svg" xmlns:xlink="http://www.w3.org/1999/xlink" width="107" height="107" viewBox="0 0 107 107">
  <defs>
    <radialGradient id="radial-gradient" cx="0.5" cy="0.5" r="0.64" gradientTransform="matrix(0.571, -0.821, 0.656, 0.456, -0.114, 0.682)" gradientUnits="objectBoundingBox">
      <stop offset="0" stop-color="#eff1f5"/>
      <stop offset="0.337" stop-color="#eff1f5"/>
      <stop offset="1" stop-color="#838aa2"/>
    </radialGradient>
  </defs>
  <g id="namad" transform="translate(-907 -469)">
    <rect id="Rectangle_1" data-name="Rectangle 1" width="107" height="107" transform="translate(907 469)" fill="none"/>
    <path id="Union_1" data-name="Union 1" d="M37.34,68.619c-5.07-4.16-7.16-10.71-8.74-16.84C18.24,55.249,8.78,60.869,0,67.288,3.05,60.329,8.73,54.9,15.09,50.949c4.28-2.53,9.23-3.78,13.41-6.48,1.11-11.75,3.45-23.95,10.55-33.69C42.74,5.859,47.77,1.349,54,.209c5.87-1.1,12.92,2.21,14.28,8.36a24.167,24.167,0,0,1-5.84,21.61c-7.31,7.98-16.71,13.72-26.2,18.73.75,3.64,1.93,7.46,4.94,9.88,4.07,3.83,10.689,3.39,15.05.3,4.06-3.09,6.5-7.69,9.47-11.73a42.869,42.869,0,0,1,18.89-14.61c-2.06,6.07-9.131,7.01-13.66,10.56,2.25.19,4.5.23,6.76.25-.88,2.569-1.56,5.38-3.55,7.349-1.77,1.821-4.261,2.57-6.56,3.42-4.08,7.25-10.43,13.65-18.6,15.961a21.778,21.778,0,0,1-4.783.593A10.11,10.11,0,0,1,37.34,68.619Zm6.57-53.869c-4.88,7.95-6.68,17.39-7.46,26.57a37.829,37.829,0,0,0,15.24-8.78c5.14-4.52,9.61-10.58,9.68-17.709.4-3.431-1.86-7.2-5.4-7.751-.154-.007-.307-.011-.459-.011C50.557,7.067,46.471,10.79,43.91,14.749Zm41.84,18.47c2.46-1.94,4.9-3.911,7.34-5.88q2.94,3.66,5.871,7.31c-2.41,2-4.86,3.94-7.28,5.909C89.71,38.109,87.72,35.669,85.75,33.219Z" transform="translate(911 484)" fill="url(#radial-gradient)"/>
  </g>
</svg>